<?xml version="1.0" encoding="utf-8"?>
<!-- Generator: Adobe Illustrator 25.2.1, SVG Export Plug-In . SVG Version: 6.00 Build 0)  -->
<svg version="1.1" id="Layer_1" xmlns="http://www.w3.org/2000/svg" xmlns:xlink="http://www.w3.org/1999/xlink" x="0px" y="0px"
	 viewBox="0 0 809.8 344.5" style="enable-background:new 0 0 809.8 344.5;" xml:space="preserve">
<style type="text/css">
	.st0{fill:#F1F3F5;}
</style>
<path class="st0" d="M771,117c-8.5,0.3-16.2-19.6-55.3-26c-29.2-4.8-48.9,10.9-52.7,8.4c-15-9.9-29.5-16.7-45.6-18.1
	c1.2-18.2-15.6-44.6-38.8-43.7c-8.5,0.3-16.2-19.6-55.3-26c-29.2-4.8-48.9,10.9-52.7,8.4C447.2,4.6,425.2-3.5,396,4.9
	c-23.5,6.8-37,19.9-43.1,36.8c-6.6-3-14.9-5.8-25.4-7.5c-29.2-4.8-48.9,10.9-52.7,8.4c-23.4-15.3-45.4-23.4-74.6-15
	c-28.9,8.4-42.7,26.3-46.2,49c-0.2,1.5-1.6,3.3-3.2,4.2c-12.9,7-18.5,16.6-18.4,26.9c-9.2-3.6-22.6-7.6-39-4.8
	c-38.8,6.8-46.4,27.8-54.9,27.4C14.9,129.4-2,158.8,0.2,178C-2,196.1,15,224,38.8,223c8.5-0.3,16.2,19.6,55.3,26
	c29.2,4.8,48.9-10.9,52.7-8.4c15,9.9,29.5,16.7,45.6,18.1c-1.2,18.2,15.6,44.6,38.8,43.7c8.5-0.3,16.2,19.6,55.3,26
	c29.2,4.8,48.9-10.9,52.7-8.4c23.4,15.3,45.4,23.4,74.6,15c23.5-6.8,37-19.9,43.1-36.8c6.6,3,14.9,5.8,25.4,7.5
	c29.2,4.8,48.9-10.9,52.7-8.4c23.4,15.3,45.4,23.4,74.6,15c28.9-8.4,42.7-26.3,46.2-49c0.2-1.5,1.6-3.3,3.2-4.2
	c12.9-7,18.5-16.6,18.4-26.9c9.2,3.6,22.6,7.6,39,4.8c38.8-6.8,46.4-27.8,54.9-27.4c23.6,1,40.5-28.4,38.3-47.6
	C811.8,143.9,794.8,116.1,771,117z"/>
</svg>
